<?xml version="1.0" encoding="UTF-8"?>
<!-- Uploaded to: SVG Find, www.svgrepo.com, Generator: SVG Find Mixer Tools -->
<svg fill="#000000" width="800px" height="800px" version="1.1" viewBox="144 144 512 512" xmlns="http://www.w3.org/2000/svg">
 <path d="m515.56 242.45c-1.4492-0.14062-2.9141-0.20312-4.4102-0.20312h-41.562v-62.66c0-4.3438-3.5273-7.8711-7.8711-7.8711s-7.8711 3.5273-7.8711 7.8711v62.66h-45.973v-62.66c0-4.3438-3.5273-7.8711-7.8711-7.8711s-7.8711 3.5273-7.8711 7.8711v62.66h-45.973v-62.66c0-4.3438-3.5273-7.8711-7.8711-7.8711s-7.8711 3.5273-7.8711 7.8711v62.66h-41.562c-1.4961 0-2.9609 0.0625-4.4102 0.20312v-62.867c0-4.3438-3.5273-7.8711-7.8711-7.8711s-7.8711 3.5273-7.8711 7.8711v67.227c-9.5547 4.5977-17.301 12.328-21.883 21.883h-67.227c-4.3438 0-7.8711 3.5273-7.8711 7.8711s3.5273 7.8711 7.8711 7.8711h62.867c-0.14062 1.4492-0.20312 2.9141-0.20312 4.4102v41.562h-62.66c-4.3438 0-7.8711 3.5273-7.8711 7.8711s3.5273 7.8711 7.8711 7.8711h62.66v45.973h-62.66c-4.3438 0-7.8711 3.5273-7.8711 7.8711s3.5273 7.8711 7.8711 7.8711h62.66v45.973h-62.66c-4.3438 0-7.8711 3.5273-7.8711 7.8711s3.5273 7.8711 7.8711 7.8711h62.66v41.562c0 1.4961 0.0625 2.9609 0.20312 4.4102h-62.867c-4.3438 0-7.8711 3.5273-7.8711 7.8711s3.5273 7.8711 7.8711 7.8711h67.227c4.5977 9.5547 12.328 17.301 21.883 21.883v67.227c0 4.3438 3.5273 7.8711 7.8711 7.8711s7.8711-3.5273 7.8711-7.8711v-62.867c1.4492 0.14062 2.9141 0.20312 4.4102 0.20312h41.562v62.66c0 4.3438 3.5273 7.8711 7.8711 7.8711s7.8711-3.5273 7.8711-7.8711v-62.66h45.973v62.66c0 4.3438 3.5273 7.8711 7.8711 7.8711s7.8711-3.5273 7.8711-7.8711v-62.66h45.973v62.66c0 4.3438 3.5273 7.8711 7.8711 7.8711s7.8711-3.5273 7.8711-7.8711v-62.66h41.562c1.4961 0 2.9609-0.0625 4.4102-0.20312v62.867c0 4.3438 3.5273 7.8711 7.8711 7.8711s7.8711-3.5273 7.8711-7.8711v-67.227c9.5547-4.5977 17.301-12.328 21.883-21.883h67.227c4.3438 0 7.8711-3.5273 7.8711-7.8711s-3.5273-7.8711-7.8711-7.8711h-62.867c0.14062-1.4492 0.20312-2.9141 0.20312-4.4102v-41.562h62.66c4.3438 0 7.8711-3.5273 7.8711-7.8711s-3.5273-7.8711-7.8711-7.8711h-62.66v-45.973h62.66c4.3438 0 7.8711-3.5273 7.8711-7.8711s-3.5273-7.8711-7.8711-7.8711h-62.66v-45.973h62.66c4.3438 0 7.8711-3.5273 7.8711-7.8711s-3.5273-7.8711-7.8711-7.8711h-62.66v-41.562c0-1.4961-0.0625-2.9609-0.20312-4.4102h62.867c4.3438 0 7.8711-3.5273 7.8711-7.8711s-3.5273-7.8711-7.8711-7.8711h-67.227c-4.5977-9.5547-12.328-17.301-21.883-21.883v-67.227c0-4.3438-3.5273-7.8711-7.8711-7.8711s-7.8711 3.5273-7.8711 7.8711z" fill-rule="evenodd"/>
</svg>